<svg height="512" viewBox="0 0 56 58" width="512" xmlns="http://www.w3.org/2000/svg"><g id="Page-1" fill="none" fill-rule="evenodd"><g id="017---Science-Book" fill="rgb(0,0,0)" fill-rule="nonzero"><path id="Shape" d="m13 0c-.5522847 0-1 .44771525-1 1v2c0 .55228475.4477153 1 1 1s1-.44771525 1-1v-2c0-.55228475-.4477153-1-1-1z"/><path id="Shape" d="m13.184 32.009c1.3740268-1.131363 3.0550968-1.8258013 4.827-1.994.0209346-2.4360759.1905835-4.8686013.508-7.284-1.853 1.132-4.603 3.711-5.335 9.278z"/><path id="Shape" d="m21.439 32.669-.933 2.884 2.252-.563c.2744931-.0685125.5651619-.0175481.7999726.1402629.2348107.1578111.3917872.4076994.4320274.6877371l.673 4.712 2.556-3.195c.1967485-.2257433.4815505-.3553128.781-.3553128s.5842515.1295695.781.3553128l2.556 3.2.673-4.712c.0402402-.2800377.1972167-.529926.4320274-.6877371.2348107-.157811.5254795-.2087754.7999726-.1402629l2.252.563-.933-2.884c-2.1796608.2216943-4.3703159.317187-6.561.286-2.1907806.029526-4.3814359-.0676361-6.561-.291z"/><path id="Shape" d="m13.187 34.023c-.4591237-.0011591-.9040562-.1592319-1.261-.448-.5610469-.4757322-.830695-1.2113779-.71-1.937.1041275-.7343037.2496932-1.4621321.436-2.18-.671.066-1.351.142-2.047.236-.43677528.0610261-.78359559.3981338-.857.833l-3.492 20.987c7.0573256-2.3539198 14.6884084-2.3511122 21.744.008v-6.522c0-.5522847.4477153-1 1-1s1 .4477153 1 1v6.522c7.0563998-2.3568778 14.6876002-2.3568778 21.744 0l-3.489-20.99c-.0692817-.434396-.4142931-.7725072-.85-.833-.68-.091-1.367-.167-2.055-.233.1829317.7078956.3268154 1.425311.431 2.149.1248964.7316601-.1430746 1.4752226-.706 1.959-.7405245.604616-1.8061542.5979007-2.539-.016-1.178559-.9760486-2.6503016-1.5288323-4.18-1.57-.25855.1336455-.5308009.2389248-.812.314l1.407 4.35c.111706.3455527.0272934.7245052-.2205192.9899742-.2478127.2654691-.6200688.3757225-.9724808.2880258l-2.925-.73-.843 5.9c-.0564033.3944823-.341636.7178245-.726.823-.0860506.0235965-.174778.0360318-.264.037-.3039469-.000129-.5913371-.1384884-.781-.376l-3.219-4.023-3.219 4.023c-.2491896.3115548-.6597213.4451866-1.0445596.3400134-.3848382-.1051732-.6703431-.4290261-.7264404-.8240134l-.843-5.9-2.925.731c-.352412.0876967-.7246681-.0225567-.9724808-.2880258-.2478126-.265469-.3322252-.6444215-.2205192-.9899742l1.407-4.35c-.2811991-.0750752-.55345-.1803545-.812-.314-1.529233.0411072-3.0005757.5935208-4.179 1.569-.3586052.2995244-.8107617.4640415-1.278.465zm-.187 8.977h-2c-.5522847 0-1-.4477153-1-1s.4477153-1 1-1h2c.5522847 0 1 .4477153 1 1s-.4477153 1-1 1zm3 3c0 .5522847-.4477153 1-1 1s-1-.4477153-1-1v-2c0-.5522847.4477153-1 1-1s1 .4477153 1 1zm1-5h2c.5522847 0 1 .4477153 1 1s-.4477153 1-1 1h-2c-.5522847 0-1-.4477153-1-1s.4477153-1 1-1zm-1-3v2c0 .5522847-.4477153 1-1 1s-1-.4477153-1-1v-2c0-.5522847.4477153-1 1-1s1 .4477153 1 1z"/><path id="Shape" d="m35.993 30.4c-.138-17.682-6.666-21.721-7.987-22.353-1.332.632-7.861 4.671-8 22.352 2.6394203.4520425 5.3173145.6399707 7.994.561 2.6763038.0784795 5.3537846-.1091083 7.993-.56zm-11.993-12.44c0-2.209139 1.790861-4 4-4s4 1.790861 4 4-1.790861 4-4 4-4-1.790861-4-4z"/><path id="Shape" d="m42.816 32.021c-.732-5.575-3.482-8.157-5.335-9.29.3174165 2.4153987.4870654 4.8479241.508 7.284 1.7740181.1684357 3.4561267.8674847 4.827 2.006z"/><circle id="Oval" cx="28" cy="17.96" r="2"/><path id="Shape" d="m28.433 53.9c-.1349369.0655839-.2829694.0997715-.433.1-.1496336-.0008878-.2971965-.0350459-.432-.1-1.042304-.4450968-2.118365-.8065704-3.218-1.081l-.344 4.15c.203.319 1.585 1.031 3.994 1.031s3.791-.712 3.994-1.029l-.344-4.155c-1.0995423.2749071-2.1753119.6373983-3.217 1.084z"/><path id="Shape" d="m5.863 53.423c-.66351919.2076591-1.3872485.0571254-1.91293426-.397885-.52568575-.4550105-.77843817-1.1496764-.66806574-1.836115l3.137-18.859h-.775c-.47842032.0002823-.88962179.3393873-.981.809l-4.222 21.673c-.0559823.2909791.02104414.591749.21.82.19143404.2331618.47731908.3682141.779.368h20.652l.3-3.625c-5.5071922-1.0398423-11.1873725-.6794798-16.519 1.048z"/><path id="Shape" d="m50.355 32.331h-.773l3.135 18.855c.1115736.6852709-.1391353 1.3795137-.6628039 1.8353822-.5236686.4558686-1.2458318.6085391-1.9091961.4036178-5.3325645-1.7306974-11.0145081-2.0938136-16.524-1.056l.3 3.631h20.649c.3016809.0002141.587566-.1348382.779-.368.1889559-.228251.2659823-.5290209.21-.82l-4.223-21.672c-.0913782-.4696127-.5025797-.8087177-.981-.809z"/><path id="Shape" d="m12 9c0 .55228475.4477153 1 1 1s1-.44771525 1-1v-2c0-.55228475-.4477153-1-1-1s-1 .44771525-1 1z"/><path id="Shape" d="m15 6h2c.5522847 0 1-.44771525 1-1s-.4477153-1-1-1h-2c-.5522847 0-1 .44771525-1 1s.4477153 1 1 1z"/><path id="Shape" d="m9 6h2c.5522847 0 1-.44771525 1-1s-.4477153-1-1-1h-2c-.55228475 0-1 .44771525-1 1s.44771525 1 1 1z"/><path id="Shape" d="m47 17c.5522847 0 1-.4477153 1-1v-2c0-.5522847-.4477153-1-1-1s-1 .4477153-1 1v2c0 .5522847.4477153 1 1 1z"/><path id="Shape" d="m47 19c-.5522847 0-1 .4477153-1 1v2c0 .5522847.4477153 1 1 1s1-.4477153 1-1v-2c0-.5522847-.4477153-1-1-1z"/><path id="Shape" d="m49 19h2c.5522847 0 1-.4477153 1-1s-.4477153-1-1-1h-2c-.5522847 0-1 .4477153-1 1s.4477153 1 1 1z"/><path id="Shape" d="m43 19h2c.5522847 0 1-.4477153 1-1s-.4477153-1-1-1h-2c-.5522847 0-1 .4477153-1 1s.4477153 1 1 1z"/></g></g></svg>