<svg height="511pt" viewBox="0 0 511.99991 511" width="511pt" xmlns="http://www.w3.org/2000/svg"><path d="m275.253906 216.046875c-29.683594-14.261719-64.355468 7.535156-64.355468 40.578125 0 24.800781 20.179687 44.980469 44.976562 44.980469 33.0625 0 54.828125-34.695313 40.578125-64.359375l-29.972656 29.984375c-5.832031 5.832031-15.339844 5.871093-21.210938 0-5.847656-5.855469-5.847656-15.351563 0-21.207031zm0 0"/><path d="m451.496094 91.707031c-9.351563-11.082031-19.628906-21.347656-30.703125-30.671875v30.671875zm0 0"/><path d="m390.808594 52.9375-59.972656 59.96875v47.558594l59.972656-59.96875zm0 0"/><path d="m399.59375 181.664062 59.96875-59.96875h-47.554688l-59.972656 59.96875zm0 0"/><path d="m483.683594 139.984375c-72.683594 72.683594-67.851563 68.058594-69.699219 69.226563 31.707031 105.519531-47.71875 212.445312-158.109375 212.445312-90.996094 0-165.03125-74.035156-165.03125-165.03125 0-110.195312 106.714844-189.878906 212.445312-158.109375 1.164063-1.84375-3.472656 3.007813 69.1875-69.65625-168.792968-86.660156-372.476562 35.515625-372.476562 227.765625 0 141.421875 114.445312 255.875 255.875 255.875 192.609375 0 314.273438-204.066406 227.808594-372.515625zm0 0"/><path d="m255.875 331.589844c-41.332031 0-74.964844-33.625-74.964844-74.964844 0-59.8125 66.886719-95.296875 116.285156-62.515625l3.65625-3.660156v-61.191407c-87.679687-31.050781-180.019531 34.449219-180.019531 127.367188 0 74.464844 60.578125 135.042969 135.042969 135.042969 93.003906 0 158.390625-92.429688 127.367188-180.019531h-61.191407l-3.65625 3.660156c32.8125 49.449218-2.746093 116.28125-62.519531 116.28125zm0 0"/><path d="m420.792969 16.746094c0-13.359375-16.191407-20.007813-25.597657-10.605469l-22.71875 22.71875c17.34375 8.886719 33.535157 19.699219 48.316407 32.175781zm0 0"/><path d="m506.359375 117.304688c9.40625-9.402344 2.75-25.597657-10.601563-25.597657h-44.261718c12.457031 14.753907 23.28125 30.9375 32.1875 48.277344zm0 0"/></svg>