<svg height="512pt" viewBox="-1 0 512 512" width="512pt" xmlns="http://www.w3.org/2000/svg"><path d="m375 482h-45v-31h-150v31h-45c-8.28125 0-15 6.71875-15 15s6.71875 15 15 15h240c8.28125 0 15-6.71875 15-15s-6.71875-15-15-15zm0 0"/><path d="m0 367c0 30.328125 24.671875 55 55 55h400c30.328125 0 55-24.671875 55-55v-35h-510zm0 0"/><path d="m455 0h-400c-30.328125 0-55 24.671875-55 55v247h510v-247c0-30.328125-24.671875-55-55-55zm-264.621094 216.171875c5.980469 5.730469 6.183594 15.226563.449219 21.207031-5.726563 5.976563-15.222656 6.1875-21.207031.449219l-63.640625-61c-6.15625-5.902344-6.15625-15.753906 0-21.65625l63.640625-61c5.980468-5.730469 15.476562-5.53125 21.207031.449219 5.734375 5.980468 5.53125 15.476562-.449219 21.207031l-52.339844 50.171875zm94.1875-107.589844-30 122c-1.683594 6.839844-7.8125 11.421875-14.554687 11.421875-9.757813 0-16.898438-9.152344-14.578125-18.585937l30-122c1.976562-8.046875 10.101562-12.960938 18.148437-10.984375 8.042969 1.976562 12.960938 10.101562 10.984375 18.148437zm117.453125 68.246094-63.640625 61c-5.976562 5.730469-15.472656 5.535156-21.207031-.449219-5.734375-5.980468-5.53125-15.476562.449219-21.207031l52.34375-50.171875-52.34375-50.171875c-5.980469-5.730469-6.183594-15.226563-.449219-21.207031 5.730469-5.980469 15.226563-6.179688 21.207031-.449219l63.640625 61c6.15625 5.902344 6.15625 15.753906 0 21.65625zm0 0"/></svg>